<svg width="28" height="28" viewBox="0 0 28 28" fill="none" xmlns="http://www.w3.org/2000/svg">
<g clip-path="url(#clip0_49_0)">
<path d="M1.03019 14.7907C2.60769 16.1437 4.39561 17.6774 7.85399 17.6774C11.3125 17.6774 13.1005 16.1437 14.6781 14.7907C16.1699 13.5111 17.4584 12.4059 20.1458 12.4059C22.8332 12.4059 24.1216 13.5111 25.6135 14.7907C26.0502 15.1652 26.7078 15.1149 27.0823 14.6782C27.4569 14.2415 27.4065 13.5839 26.9698 13.2094C25.3923 11.8563 23.6042 10.3226 20.1458 10.3226C16.6873 10.3226 14.8993 11.8562 13.3217 13.2094C11.8298 14.4889 10.5414 15.5941 7.85399 15.5941C5.16665 15.5941 3.87837 14.489 2.38659 13.2094C1.94993 12.8348 1.29232 12.8851 0.91774 13.3218C0.543157 13.7585 0.593522 14.4161 1.03019 14.7907Z" fill="black"/>
<path d="M1.03019 9.09307C2.60764 10.4462 4.39555 11.9798 7.85399 11.9798C11.3125 11.9798 13.1005 10.4462 14.6781 9.09307C16.1699 7.81349 17.4583 6.70833 20.1458 6.70833C22.8331 6.70833 24.1215 7.81344 25.6135 9.09307C26.0502 9.46771 26.7077 9.41724 27.0823 8.98052C27.4569 8.54385 27.4064 7.88615 26.9697 7.51167C25.3922 6.15854 23.6041 4.625 20.1458 4.625C16.6873 4.625 14.8993 6.15865 13.3217 7.51177C11.8298 8.79135 10.5414 9.89651 7.85399 9.89651C5.1667 9.89651 3.87837 8.79141 2.38659 7.51177C1.94993 7.13719 1.29227 7.1875 0.91774 7.62422C0.543157 8.06089 0.593522 8.71854 1.03019 9.09307Z" fill="black"/>
<path d="M26.9698 18.9069C25.3923 17.5539 23.6043 16.0202 20.1458 16.0202C16.6873 16.0202 14.8993 17.5538 13.3217 18.9069C11.8298 20.1865 10.5414 21.2917 7.85401 21.2917C5.16682 21.2917 3.87843 20.1866 2.38666 18.907L2.38656 18.9069C1.94989 18.5325 1.29234 18.5828 0.917758 19.0194C0.543227 19.4561 0.593591 20.1138 1.03026 20.4883C2.60776 21.8414 4.39573 23.375 7.85401 23.375C11.3125 23.375 13.1005 21.8414 14.6781 20.4882C16.1699 19.2087 17.4584 18.1035 20.1458 18.1035C22.8332 18.1035 24.1217 19.2087 25.6135 20.4882C26.0502 20.8628 26.7078 20.8125 27.0823 20.3758C27.4569 19.9391 27.4066 19.2815 26.9698 18.9069Z" fill="black"/>
</g>
<defs>
<clipPath id="clip0_49_0">
<rect width="26.6667" height="26.6667" fill="white" transform="translate(0.666687 0.666656)"/>
</clipPath>
</defs>
</svg>
